# xmcd
#
# Track frame offsets:
#	150
#	10549
#	20582
#	31932
#	44907
#	59109
#	72229
#	84030
#	92836
#	104001
#	118183
#	131084
#	143883
#	154423
#	164494
#
# Disc length: 2372 seconds
#
# Revision: 2
# Processed by: cddbd v1.5.2PL0 Copyright (c) Steve Scherf et al.
# Submitted via: audiograbber 1.83.01
#
DISCID=d709420f
DTITLE=Heinz Erhardt - Die schönsten Lieder [CD 2)
DYEAR=2015
DGENRE=Humor
TTITLE0=Es ist wunderbar, es ist fabelhaft
TTITLE1=Schürzenjäger-Polka
TTITLE2=Immer noch `n Groschen
TTITLE3=Onkel-Otto-Walzer
TTITLE4=Das Wackellied
TTITLE5=Hämmerchen-Lied
TTITLE6=Fräulein Mabel
TTITLE7=Drei Mann in einem Boot
TTITLE8=Luisenstraße 19
TTITLE9=Striptease-Susie
TTITLE10=Mit dem Rad, Kamerad
TTITLE11=Herr Ober ! Bitte zweimal eine Bockwurst
TTITLE12=Ach Marianne
TTITLE13=Ach, wenn ich doch im Lotto
TTITLE14=Noch `n Abschiedslied
EXTD=
EXTT0=
EXTT1=
EXTT2=
EXTT3=
EXTT4=
EXTT5=
EXTT6=
EXTT7=
EXTT8=
EXTT9=
EXTT10=
EXTT11=
EXTT12=
EXTT13=
EXTT14=
PLAYORDER=
